<svg width="28" height="28" viewBox="0 0 28 28" fill="none" xmlns="http://www.w3.org/2000/svg">
<path d="M9.1022 6.68628C9.78936 6.68628 10.4077 6.74578 10.9747 6.86711C11.5382 6.98728 12.0189 7.18561 12.4249 7.45978C12.825 7.73395 13.1377 8.09795 13.3629 8.55528C13.581 9.00678 13.6895 9.57145 13.6895 10.2388C13.6895 10.9621 13.5262 11.5664 13.1984 12.0483C12.8682 12.5313 12.3817 12.9268 11.733 13.2324C12.6162 13.4879 13.2707 13.9348 13.7047 14.5694C14.141 15.2099 14.3545 15.9764 14.3545 16.8748C14.3545 17.6039 14.2157 18.2304 13.9369 18.7566C13.6682 19.2749 13.2784 19.7208 12.8005 20.0563C12.3056 20.4009 11.7528 20.6538 11.1684 20.8029C10.5556 20.9638 9.92467 21.0446 9.2912 21.0433H2.33203V6.68628H9.1022ZM8.6927 12.4869C9.2527 12.4869 9.71703 12.3539 10.0834 12.0844C10.4474 11.8184 10.6235 11.3798 10.6235 10.7789C10.6235 10.4453 10.564 10.1699 10.4474 9.95411C10.3337 9.74647 10.1655 9.57381 9.96086 9.45478C9.7467 9.32776 9.51033 9.24264 9.26436 9.20395C8.99625 9.15394 8.72392 9.13011 8.4512 9.13278H5.4937V12.4869H8.6927ZM8.86886 18.5991C9.18036 18.5991 9.4767 18.5723 9.75553 18.5093C10.0367 18.4486 10.2864 18.3506 10.4987 18.2048C10.711 18.0648 10.886 17.8746 11.012 17.6319C11.1392 17.3916 11.201 17.0778 11.201 16.7009C11.201 15.9613 10.9922 15.4351 10.5792 15.1166C10.165 14.8016 9.6097 14.6453 8.92953 14.6453H5.4937V18.6003H8.86886V18.5991ZM18.8614 18.5513C19.2895 18.9689 19.9067 19.1789 20.7094 19.1789C21.2845 19.1789 21.7815 19.0331 22.2004 18.7438C22.6134 18.4533 22.8654 18.1429 22.9622 17.8221H25.4764C25.0727 19.0728 24.4602 19.9664 23.6225 20.5043C22.7954 21.0444 21.7885 21.3128 20.6125 21.3128C19.7935 21.3128 19.0562 21.1809 18.3959 20.9196C17.762 20.6728 17.1893 20.2915 16.717 19.8019C16.2526 19.301 15.8935 18.7118 15.6612 18.0694C15.4058 17.3591 15.2794 16.6088 15.2879 15.8539C15.2879 15.0769 15.4174 14.3501 15.6717 13.6793C15.9131 13.0308 16.2839 12.4382 16.7614 11.9374C17.2339 11.4474 17.7939 11.0613 18.446 10.7778C19.1318 10.4894 19.8698 10.3456 20.6137 10.3554C21.4934 10.3554 22.2622 10.5258 22.9225 10.8688C23.5629 11.1962 24.1181 11.6684 24.5442 12.2478C24.9677 12.8229 25.2699 13.4821 25.4577 14.2206C25.6455 14.9579 25.7109 15.7279 25.6572 16.5341H18.1544C18.1555 17.3554 18.432 18.1336 18.8614 18.5513ZM22.142 13.0901C21.8025 12.7144 21.2285 12.5114 20.5262 12.5114C20.07 12.5114 19.6932 12.5873 19.3899 12.7436C19.1125 12.8837 18.8664 13.0786 18.6665 13.3164C18.491 13.5324 18.3608 13.7816 18.2839 14.0491C18.2166 14.2722 18.1732 14.5017 18.1544 14.7339H22.8C22.7324 14.0059 22.4827 13.4681 22.142 13.0901ZM17.571 7.64995H23.3915V9.06745H17.571V7.64995Z" fill="white"/>
</svg>
