<svg width="28" height="28" viewBox="0 0 28 28" fill="none" xmlns="http://www.w3.org/2000/svg">
<path d="M24.102 8.14325C23.084 6.37893 21.6188 4.91416 19.8542 3.89659C18.0657 2.85475 16.1139 2.33325 13.9987 2.33325C11.8835 2.33325 9.9317 2.85475 8.14203 3.89659C6.35353 4.93842 4.9372 6.35475 3.89536 8.14325C2.85353 9.93175 2.33203 11.8848 2.33203 13.9999C2.33203 16.1151 2.85236 18.0681 3.89536 19.8566C4.91307 21.6212 6.37833 23.086 8.1432 24.1033C9.9317 25.1451 11.8835 25.6666 13.9987 25.6666C16.1139 25.6666 18.0657 25.1451 19.8554 24.1033C21.62 23.0857 23.0851 21.6209 24.1032 19.8566C25.145 18.0681 25.6654 16.1151 25.6654 13.9999C25.6654 11.8848 25.145 9.93175 24.102 8.14325ZM13.9987 4.26992C16.332 4.26992 18.3994 5.01659 20.2054 6.50875C19.132 7.87842 17.5384 9.00542 15.422 9.89209C14.253 7.77692 12.986 6.01059 11.6175 4.59542C12.3931 4.38096 13.194 4.27149 13.9987 4.26992ZM6.42703 7.93325C7.28014 6.84992 8.35957 5.96599 9.58986 5.34325C11.0039 6.74442 12.3024 8.49325 13.4865 10.5933C11.1532 11.2933 8.68686 11.6433 6.0887 11.6433C5.4202 11.6433 4.91503 11.6281 4.57203 11.5966C4.92959 10.26 5.56131 9.01249 6.42703 7.93325ZM4.2687 13.9999C4.2687 13.9369 4.2722 13.8599 4.28036 13.7666C4.28853 13.6733 4.29203 13.5963 4.29203 13.5333C4.58836 13.5496 5.03986 13.5566 5.64653 13.5566C8.75687 13.5566 11.6502 13.1284 14.3254 12.2733C14.5435 12.7084 14.7699 13.1984 15.002 13.7433C13.462 14.0851 11.8824 14.9169 10.2642 16.2399C8.64603 17.5629 7.46537 18.9548 6.7187 20.4166C5.08537 18.5651 4.2687 16.4266 4.2687 13.9999ZM13.9987 23.7299C11.789 23.7299 9.8057 23.0451 8.04753 21.6778C8.7487 20.2929 9.82553 18.9688 11.2804 17.7099C12.734 16.4499 14.1772 15.6648 15.6087 15.3533C16.5117 17.8487 17.1224 20.4405 17.4287 23.0766C16.3354 23.5038 15.1725 23.7253 13.9987 23.7299ZM22.2587 19.1099C21.4951 20.3402 20.4668 21.3848 19.2487 22.1678C18.9687 19.7411 18.432 17.3763 17.6399 15.0733C18.7272 14.9963 19.699 14.9566 20.5565 14.9566C21.4887 14.9566 22.5235 14.9963 23.6587 15.0733C23.5064 16.5081 23.0275 17.8889 22.2587 19.1099ZM20.812 13.2766C19.4587 13.2766 18.2069 13.3314 17.0554 13.4399C16.8115 12.8015 16.5469 12.1712 16.262 11.5499C18.6724 10.4929 20.3827 9.20959 21.3942 7.69992C22.7942 9.34959 23.5572 11.2314 23.6809 13.3466C22.7335 13.2999 21.7769 13.2766 20.812 13.2766Z" fill="white"/>
</svg>
