<svg width="28" height="28" viewBox="0 0 28 28" fill="none" xmlns="http://www.w3.org/2000/svg">
<path d="M14.0001 8.60645C12.5694 8.60645 11.1972 9.17481 10.1855 10.1865C9.17383 11.1982 8.60547 12.5704 8.60547 14.0011C8.60547 15.4319 9.17383 16.804 10.1855 17.8157C11.1972 18.8274 12.5694 19.3958 14.0001 19.3958C15.4309 19.3958 16.803 18.8274 17.8147 17.8157C18.8264 16.804 19.3948 15.4319 19.3948 14.0011C19.3948 12.5704 18.8264 11.1982 17.8147 10.1865C16.803 9.17481 15.4309 8.60645 14.0001 8.60645ZM14.0001 17.5046C13.0706 17.5046 12.1792 17.1354 11.522 16.4781C10.8647 15.8209 10.4955 14.9294 10.4955 13.9999C10.4955 13.0704 10.8647 12.179 11.522 11.5218C12.1792 10.8645 13.0706 10.4953 14.0001 10.4953C14.9296 10.4953 15.8211 10.8645 16.4783 11.5218C17.1356 12.179 17.5048 13.0704 17.5048 13.9999C17.5048 14.9294 17.1356 15.8209 16.4783 16.4781C15.8211 17.1354 14.9296 17.5046 14.0001 17.5046Z" fill="white"/>
<path d="M19.6053 9.66572C20.2999 9.66572 20.863 9.10265 20.863 8.40806C20.863 7.71347 20.2999 7.15039 19.6053 7.15039C18.9107 7.15039 18.3477 7.71347 18.3477 8.40806C18.3477 9.10265 18.9107 9.66572 19.6053 9.66572Z" fill="white"/>
<path d="M23.9567 7.12953C23.6867 6.43207 23.2739 5.79869 22.745 5.26993C22.216 4.74117 21.5825 4.32868 20.8849 4.05886C20.0686 3.75244 19.2063 3.58676 18.3346 3.56886C17.2111 3.51986 16.8552 3.50586 14.0062 3.50586C11.1572 3.50586 10.7921 3.50586 9.67791 3.56886C8.80686 3.58584 7.94512 3.75156 7.12991 4.05886C6.43217 4.32836 5.79846 4.74074 5.26946 5.26954C4.74046 5.79834 4.32784 6.43189 4.05807 7.12953C3.7516 7.94574 3.58629 8.80817 3.56924 9.67986C3.51907 10.8022 3.50391 11.158 3.50391 14.0082C3.50391 16.8572 3.50391 17.22 3.56924 18.3365C3.58674 19.2092 3.75124 20.0702 4.05807 20.888C4.3286 21.5854 4.74162 22.2187 5.27075 22.7474C5.79988 23.2762 6.43348 23.6887 7.13107 23.9587C7.94475 24.2774 8.80684 24.455 9.68024 24.4837C10.8037 24.5327 11.1596 24.5479 14.0086 24.5479C16.8576 24.5479 17.2227 24.5479 18.3369 24.4837C19.2085 24.466 20.0708 24.3007 20.8872 23.9949C21.5846 23.7244 22.218 23.3116 22.7469 22.7827C23.2758 22.2538 23.6886 21.6204 23.9591 20.923C24.2659 20.1064 24.4304 19.2454 24.4479 18.3727C24.4981 17.2504 24.5132 16.8945 24.5132 14.0444C24.5132 11.1942 24.5132 10.8325 24.4479 9.71603C24.4343 8.83201 24.2682 7.95698 23.9567 7.12953ZM22.5357 18.2502C22.5282 18.9225 22.4055 19.5886 22.1729 20.2195C21.9977 20.6732 21.7295 21.0852 21.3855 21.429C21.0415 21.7728 20.6294 22.0408 20.1756 22.2157C19.5517 22.4472 18.8927 22.5699 18.2272 22.5785C17.1189 22.6299 16.8062 22.6427 13.9642 22.6427C11.1199 22.6427 10.8294 22.6427 9.70007 22.5785C9.03499 22.5704 8.37629 22.4476 7.75291 22.2157C7.29754 22.0418 6.88374 21.7743 6.53828 21.4305C6.19281 21.0866 5.92338 20.6741 5.74741 20.2195C5.51809 19.5954 5.39544 18.9372 5.38457 18.2724C5.33441 17.164 5.32274 16.8514 5.32274 14.0094C5.32274 11.1662 5.32274 10.8757 5.38457 9.74519C5.39211 9.07322 5.51484 8.40751 5.74741 7.77703C6.10324 6.85653 6.83241 6.13203 7.75291 5.77969C8.37659 5.54886 9.0351 5.42615 9.70007 5.41686C10.8096 5.36669 11.1211 5.35269 13.9642 5.35269C16.8074 5.35269 17.0991 5.35269 18.2272 5.41686C18.8927 5.42486 19.5518 5.54761 20.1756 5.77969C20.6293 5.95501 21.0414 6.22326 21.3854 6.56723C21.7293 6.91119 21.9976 7.32328 22.1729 7.77703C22.4022 8.40113 22.5249 9.05938 22.5357 9.72419C22.5859 10.8337 22.5987 11.1452 22.5987 13.9884C22.5987 16.8304 22.5987 17.136 22.5486 18.2514H22.5357V18.2502Z" fill="white"/>
</svg>
